<?xml version="1.0" standalone="no"?><!DOCTYPE svg PUBLIC "-//W3C//DTD SVG 1.1//EN" "http://www.w3.org/Graphics/SVG/1.1/DTD/svg11.dtd"><svg t="1754119085304" class="icon" viewBox="0 0 1024 1024" version="1.1" xmlns="http://www.w3.org/2000/svg" p-id="6515" xmlns:xlink="http://www.w3.org/1999/xlink" width="81" height="81"><path d="M230.517 413.199s-26.913 89.737 110.533 216.754c61.085 30.661 125.568 71.792 286.114 21.669 77.116-53.647 172.201-163.166 145.221-242.755-83.373-5.572-505.697-5.374-541.868 4.332z" fill="#88713B" p-id="6516"></path><path d="M778.896 428.369s48.016-0.371 54.183 10.843c6.175 11.208 52.684 87.615-52.019 151.723-47.73 24.783-92.147 28.826-104.045 15.171-11.9-13.652 28.177-34.681 28.177-34.681s10.812 11.95 34.68 2.169c23.879-9.781 93.332-44.449 71.533-104.042-27.103-14.495-35.675-4.476-39.02-6.503-3.341-2.025 6.511-34.68 6.511-34.68zM395.234 655.962l2.176 34.673 212.42 2.172 2.161-47.684-216.757 10.839zM276.841 702.646s10.191 30.952 19.509 30.345c9.311-0.61 396.651 2.164 396.651 2.164s17.014-11.317 15.171-32.509c-30.143-0.825-431.331 0-431.331 0z" fill="#88713B" p-id="6517"></path><path d="M176.326 483.167l66.629-2.779 19.447 105.513-63.87 5.552-22.206-108.286z" fill="#C6DFA1" p-id="6518"></path><path d="M381.512 184.26c-3.859 16.088 4.438 29.911 13.452 42.586 11.559 16.261 23.726 31.124 30.863 50.057 5.132 13.656 5.907 27.677 0.843 41.417-4.599 12.521-12.816 23.558-19.566 34.962-2.06 3.476 6.895 3.008 7.898 2.853 3.968-0.618 8.851-2.12 11.018-5.776 6.559-11.086 14.115-21.717 19.063-33.673 5.255-12.698 5.255-26.318 1.595-39.428-5.121-18.331-16.367-34.084-27.7-49.032-10.028-13.24-22.821-29.14-18.557-46.886 1.346-5.592-17.597-2.569-18.909 2.92zM529.322 193.72c-7.987 13.999-2.354 29.602 3.272 43.369 6.484 15.846 12.729 31.254 13.705 48.581 1.458 26.356-18.129 40.779-35.481 56.991-3.395 3.167 2.905 4.302 4.8 4.243 4.554-0.157 9.315-1.71 12.672-4.845 17.585-16.425 35.815-30.417 37.087-56.326 0.816-16.556-4.953-32.79-11.239-47.806-6.134-14.664-14.646-31.815-5.909-47.124 2.003-3.512-6.847-3.022-7.897-2.86-3.916 0.609-8.927 2.109-11.01 5.777zM666.078 183.099c-12.044 13.403-10.542 31.53-8.221 48.163 2.751 19.799 5.914 39.083 2.144 59.015-2.318 12.248-7.948 23.467-17.495 31.625-9.4 8.034-20.861 13.406-31.403 19.726-1.918 1.147-6.349 4.589-2.028 6.073 4.002 1.392 9.867-0.025 13.39-2.136 22.648-13.581 46.776-24.791 54.96-52.056 5.289-17.625 3.991-37.02 1.358-54.957-2.632-17.915-8.75-41 4.764-56.049 3.013-3.347-2.571-4.322-4.8-4.249-4.261 0.147-9.723 1.552-12.669 4.845z" fill="#F3C41C" p-id="6519"></path><path d="M268.531 435.209s-23.494 73.76 96.507 178.161c53.322 25.202 109.627 59.01 249.799 17.815 67.322-44.099 150.322-134.118 126.767-199.543-72.777-4.575-441.485-4.414-473.073 3.567z" fill="#CCE5C6" p-id="6520"></path><path d="M345.189 498.876c-0.482-0.992-48.661-99.55-94.664-104.759-12.018-1.363-23.068 4.025-32.824 16.006-12.258 39.743-4.247 69.26-4.165 69.557l-5.065 1.427c-0.353-1.266-8.605-31.46 4.358-73.026l0.148-0.474 0.317-0.39c11.033-13.756 23.762-19.92 37.819-18.329 48.868 5.538 96.797 103.529 98.812 107.696l-4.736 2.292z" fill="#F9F8CD" p-id="6521"></path><path d="M304.388 474.944s-20.035 51.929 82.297 125.422c45.48 17.739 93.479 41.54 213.003 12.539 57.419-31.044 128.195-94.419 108.11-140.47-62.071-3.22-376.47-3.105-403.41 2.509z" fill="#AFD265" p-id="6522"></path><path d="M468.672 547.402s-19.757 95.926 57.477 75.354c38.535-47.661-17.848-72.257-57.477-75.354z" fill="#74A544" p-id="6523"></path><path d="M468.977 546.737s21.098 2.219 41.824 20.641c20.748 18.418 21.823 35.552 20.629 41.626-1.191 6.071-3.457 16.201-16.341 12.967-12.885-3.232-37.025-7.654-46.112-75.234z" fill="#91BA64" p-id="6524"></path><path d="M471.91 552.767s40.229 64.792 50.326 66.335c1.785-9.638-34.965-58.636-50.326-66.335z" fill="#74A544" p-id="6525"></path><path d="M227.948 510.587s4.859 11.792 1.029 28.01c-3.82 16.218-12.567 21.681-16.125 22.785-3.547 1.103-9.547 2.802-11.513-4.933-1.972-7.74-6.527-21.769 26.609-45.862z" fill="#91BA64" p-id="6526"></path><path d="M225.606 513.859s-22.785 39.764-20.714 45.548c5.607-1.808 21.027-35.228 20.714-45.548z" fill="#74A544" p-id="6527"></path></svg>